<?xml version="1.0" encoding="utf-8"?>
<!-- Generator: Adobe Illustrator 16.0.0, SVG Export Plug-In . SVG Version: 6.00 Build 0)  -->
<!DOCTYPE svg PUBLIC "-//W3C//DTD SVG 1.1//EN" "http://www.w3.org/Graphics/SVG/1.1/DTD/svg11.dtd">
<svg version="1.1" id="Layer_1" xmlns="http://www.w3.org/2000/svg" xmlns:xlink="http://www.w3.org/1999/xlink" x="0px" y="0px"
	 width="393px" height="120px" viewBox="0 0 393 120" enable-background="new 0 0 393 120" xml:space="preserve">
<g>
	<path display="none" fill-rule="evenodd" clip-rule="evenodd" fill="#FDFEFF" d="M196.517,0.492
		c64.59,0,129.181,0.009,193.771-0.046c1.844-0.002,2.263,0.415,2.26,2.259c-0.063,38.606-0.061,77.213,0,115.819
		c0.003,1.684-0.33,2.015-2.014,2.014c-129.345-0.051-258.689-0.051-388.033,0c-1.684,0.001-2.017-0.33-2.015-2.014
		c0.062-38.688,0.062-77.377,0-116.065C0.483,0.775,0.816,0.444,2.5,0.445C67.172,0.5,131.844,0.492,196.517,0.492z M92.877,45.413
		c2.705,0,5.409,0.025,8.114-0.005c6.09-0.069,7.654-1.58,7.958-7.633c0.017-0.327,0.006-0.656,0.009-0.983
		c0.17-20.87-21.501-38.267-42.478-34.182c-17.067,3.323-28.455,13.04-33.999,29.595c-1.409,4.205-2.073,8.393-1.03,12.746
		c1.028,4.292,0.495,8.072-3.17,11.044c-1.002,0.813-1.786,1.917-2.588,2.951c-3.104,4.005-2.563,6.652,1.971,9.015
		c1.459,0.76,2.042,1.506,1.1,3.02c-0.907,1.457-0.305,2.795-0.007,4.356c0.472,2.475,1.814,4.838,0.788,7.69
		c-1.766,4.905,1.11,9.646,6.146,11.009c1.607,0.435,3.229,0.521,4.87,0.5c3.798-0.051,7.473-0.877,11.117-1.846
		c1.442-0.383,2.209-0.472,2.114,1.57c-0.371,7.959-3.486,11.184-11.572,11.389c-3.095,0.079-1.864,2.502-2.22,3.921
		c-0.431,1.718,1.134,1.449,2.109,1.419c12.092-0.367,17.825-7.243,16.999-19.076c-0.214-3.069-2.537-4.982-5.711-4.815
		c-1.295,0.067-2.583,0.42-3.856,0.721c-3.354,0.79-6.706,1.567-10.187,1.456c-4.687-0.151-6.178-2.794-3.748-6.793
		c0.937-1.542,1.293-3.004,0.211-4.552c-0.498-0.71-0.457-1.359-0.09-2.061c0.399-0.766,0.179-1.558-0.301-2.07
		c-1.247-1.334-0.922-2.781-0.705-4.337c0.259-1.856-0.184-3.515-1.793-4.792c-1.011-0.803-3.233-0.539-2.992-2.212
		c0.168-1.168,1.65-2.149,2.555-3.206c0.373-0.436,0.763-0.856,1.16-1.27c2.969-3.095,4.143-6.649,3.41-10.987
		c-0.718-4.252-1.111-8.482,0.353-12.819C43.141,17.197,54.88,8.885,71.392,7.584c11.41-0.898,20.511,4.488,27.219,13.712
		c3.632,4.994,5.342,10.607,5.031,16.826c-0.074,1.479-0.746,2.134-2.099,2.021c-4.91-0.41-9.825-0.147-14.736-0.151
		c-1.672-0.001-2.057-0.596-2.014-2.141c0.099-3.521,0.047-7.047,0.026-10.572c-0.019-3.045-0.598-3.645-3.564-3.677
		c-2.623-0.029-5.246-0.023-7.868,0c-2.893,0.025-3.814,0.923-3.844,3.805c-0.035,3.36-0.15,6.729,0.042,10.078
		c0.123,2.139-0.639,2.622-2.621,2.51c-2.941-0.167-5.898-0.071-8.849-0.036c-3.098,0.037-3.947,0.899-3.958,3.917
		c-0.009,2.623-0.011,5.245,0,7.868c0.013,2.809,0.783,3.661,3.612,3.723c3.277,0.071,6.559,0.092,9.833-0.016
		c1.505-0.049,2.003,0.395,1.962,1.923c-0.097,3.685-0.07,7.375-0.016,11.063c0.037,2.489,0.977,3.396,3.43,3.425
		c2.869,0.033,5.739-0.054,8.605,0.028c2.324,0.066,3.274-1.017,3.25-3.257c-0.038-3.688,0.063-7.379-0.042-11.063
		c-0.046-1.615,0.458-2.156,2.085-2.116c3.932,0.097,7.869,0.094,11.8,0.005c1.978-0.045,2.072,0.563,1.114,2.063
		c-2.381,3.727-4.748,7.464-7.012,11.263c-4.689,7.869-8.318,16.069-9.044,25.426c-0.489,6.29,1.999,11.335,7.825,13.878
		c2.655,1.158,5.491,1.58,8.347,1.935c1.558,0.192,2.011-0.729,1.784-1.856c-0.235-1.166,1.316-3.152-1.278-3.407
		c-2.624-0.259-5.201-0.669-7.56-1.938c-2.521-1.358-4.004-3.425-3.833-6.336c0.154-2.607,0.392-5.236,0.911-7.791
		c1.506-7.426,5.352-13.828,9.185-20.213c2.063-3.438,4.417-6.716,6.269-10.26c2.38-4.557,0.17-8.053-4.929-8.111
		c-5.818-0.065-11.638-0.041-17.457-0.002c-2.588,0.017-3.317,0.791-3.342,3.438c-0.033,3.688-0.114,7.381,0.033,11.063
		c0.079,1.957-0.896,2.067-2.392,2.079c-1.54,0.013-2.435-0.214-2.363-2.115c0.137-3.601,0.087-7.211,0.018-10.816
		c-0.057-2.942-0.785-3.627-3.679-3.654c-3.278-0.031-6.561-0.111-9.833,0.03c-1.987,0.086-1.988-0.976-2.029-2.431
		c-0.044-1.585,0.241-2.411,2.116-2.329c3.272,0.143,6.556,0.08,9.833,0.025c2.823-0.046,3.519-0.699,3.581-3.491
		c0.08-3.604,0.13-7.215-0.009-10.816c-0.071-1.854,0.695-2.121,2.293-2.12c1.651,0,2.57,0.167,2.469,2.212
		c-0.172,3.516-0.063,7.046-0.042,10.57c0.017,2.956,0.622,3.59,3.636,3.642C86.484,45.452,89.681,45.409,92.877,45.413z
		 M351.104,74.883c0.786,0.943,0.567,1.816,0.476,2.563c-0.338,2.759,1.714,1.511,2.855,1.783c1.898,0.453,1.214-0.992,1.214-1.766
		c-0.003-8.104-0.296-16.212,0.252-24.309c0.078-1.165,0.252-2.29-1.471-1.843c-1.155,0.299-3.247-1.287-3.078,1.818
		c0.303,5.554,0.296,11.131-0.136,16.688c-0.373,4.797-3.415,7.729-7.866,7.703c-4.213-0.022-6.655-2.545-7.039-7.464
		c-0.447-5.726,0.103-11.445,0.28-17.166c0.03-0.952,0.24-2.047-1.201-1.569c-1.109,0.368-3.239-1.413-3.277,1.315
		c-0.083,6.058-0.168,12.118-0.058,18.173c0.123,6.704,5.592,10.656,12.117,9.105C347.202,79.195,349.257,77.25,351.104,74.883z
		 M309.137,74.159c-0.688,0.547-1.168,0.977-1.694,1.339c-3.675,2.528-7.614,3.532-11.803,1.502
		c-4.247-2.059-5.576-5.914-5.884-10.32c-0.115-1.649,0.343-2.318,2.146-2.271c4.58,0.122,9.166,0.041,13.751,0.041
		c5.577,0,6.153-0.817,4.382-6.34c-1.61-5.02-5.441-7.254-10.352-7.669c-5.021-0.423-9.407,1.042-12.284,5.552
		c-1.341,2.103-1.986,4.447-2.316,6.917c-0.809,6.047,0.468,11.33,5.835,14.832c5.486,3.579,11.111,3.137,16.653-0.086
		C308.813,76.934,309.627,76.05,309.137,74.159z M163.851,74.258c-0.852,0.625-1.477,1.136-2.15,1.569
		c-3.688,2.376-7.585,3.137-11.607,1.01c-4.052-2.143-5.414-5.845-5.56-10.224c-0.058-1.719,0.468-2.234,2.193-2.202
		c5.562,0.103,11.127-0.015,16.689,0.073c1.506,0.023,1.949-0.413,1.965-1.916c0.058-5.205-2.245-9.188-6.595-11.078
		c-5.005-2.173-11.367-1.182-14.909,2.322c-5.036,4.984-5.714,15.529-1.358,21.124c4.442,5.704,12.977,6.863,19.742,2.755
		C163.533,76.918,164.181,76.019,163.851,74.258z M203.385,74.645c-0.803,0.534-1.453,1.009-2.143,1.419
		c-3.688,2.199-7.529,2.84-11.431,0.694c-3.834-2.107-5.157-5.676-5.408-9.849c-0.113-1.877,0.387-2.563,2.408-2.509
		c5.484,0.145,10.974,0.048,16.461,0.051c0.967,0,1.945,0.229,1.976-1.351c0.077-4.055-0.86-7.661-4.232-10.237
		c-5.518-4.217-16.893-3.688-20.254,5.679c-0.726,2.021-1.11,4.1-1.212,6.242c-0.276,5.771,1.576,10.536,6.789,13.454
		c5.431,3.041,10.82,2.464,16.047-0.708C203.404,76.912,204.029,76.194,203.385,74.645z M241.405,56.435
		c2.286-2.748,4.985-3.955,8.306-3.805c3.484,0.157,5.817,2.511,6.175,6.356c0.326,3.502-0.231,4.109-4.68,4.993
		c-1.283,0.255-2.584,0.425-3.87,0.667c-1.692,0.318-3.356,0.718-4.891,1.557c-2.922,1.595-4.108,4.1-3.869,7.336
		c0.215,2.918,2.163,5.259,5.166,6.189c3.983,1.234,7.368-0.009,10.455-2.56c0.534-0.44,1.022-1.712,2.063-0.262
		c1.966,2.74,3.607,3.001,7.6,1.211c-3.564,0.18-3.886-1.913-3.867-4.2c0.041-4.993,0.194-9.986,0.162-14.979
		c-0.025-4.085-2.584-7.165-6.521-8.167c-3.788-0.964-7.257-0.098-10.618,1.714C241.495,53.305,240.813,54.35,241.405,56.435z
		 M375.698,55.86c1.706-4.382,1.706-4.382-2.489-5.228c-0.401-0.081-0.799-0.192-1.203-0.245c-5.193-0.679-9.687,2.297-10.778,7.129
		c-1.071,4.747,1.118,7.771,6.824,9.514c1.71,0.521,3.457,0.977,4.984,1.975c2.059,1.345,2.658,3.219,1.963,5.531
		c-1.16,3.864-5.961,5.247-9.732,2.739c-1.106-0.735-2.038-1.734-3.177-2.723c-0.308,1.063-0.472,1.957-0.824,2.769
		c-0.388,0.891-0.155,1.377,0.703,1.688c4.244,1.536,8.469,1.965,12.486-0.576c3.129-1.978,4.854-4.837,4.537-8.635
		c-0.318-3.823-3.083-5.313-6.305-6.301c-1.874-0.574-3.806-0.988-5.516-2.023c-2.144-1.298-2.669-3.292-2.133-5.527
		c0.55-2.294,2.176-3.557,4.555-3.799C372.402,51.865,374.204,53.359,375.698,55.86z M174.731,56.835
		c0-6.869-0.131-13.74,0.062-20.603c0.083-2.94-1.856-1.408-2.942-1.698c-1.504-0.401-1.868,0.247-1.827,1.806
		c0.204,7.683,0.315,15.371,0.325,23.057c0.007,6.05-0.152,12.101-0.307,18.151c-0.031,1.208-0.171,2.188,1.558,1.699
		c0.455-0.129,1.002-0.123,1.462-0.006c1.728,0.442,1.718-0.433,1.702-1.802C174.683,70.572,174.727,63.703,174.731,56.835z
		 M233.855,74.102c-1.922,1.8-3.888,2.932-6.124,3.553c-5.148,1.428-10.241-0.758-12.033-5.422
		c-1.866-4.855-1.786-9.823,0.273-14.607c1.569-3.646,4.544-5.346,8.535-5.507c3.522-0.142,5.963,1.756,8.263,4.083
		c1.672-3.712,1.626-3.879-2.056-4.949c-1.327-0.386-2.714-0.598-4.087-0.792c-6.587-0.932-13.07,2.437-15.687,8.116
		c-2.81,6.097-1.266,14.35,3.428,18.327c4.828,4.093,12.353,4.337,18.102,0.668C233.658,76.813,234.213,75.923,233.855,74.102z
		 M136.631,78.924c-6.898-1.183-7.108-1.311-7.418-8.596c-0.156-3.672,0.083-7.362,0.168-11.044c0.04-1.715-0.43-3.787,0.363-5.05
		c0.922-1.47,3.168-0.369,4.816-0.609c0.081-0.012,0.164-0.008,0.246-0.001c0.654,0.047,1.127-0.078,1.079-0.906
		c-0.044-0.767-0.477-0.935-1.144-0.918c-1.064,0.025-2.133-0.051-3.193,0.017c-1.436,0.092-2.098-0.29-1.871-1.935
		c0.246-1.775,0.192-3.595,0.232-5.396c0.012-0.51,0.225-1.171-0.788-1.086c-2.311,0.193-3.901,1.903-3.806,4.206
		c0.023,0.573-0.068,1.163,0.038,1.717c0.356,1.858-0.172,2.807-2.248,2.503c-0.713-0.104-1.574-0.104-1.53,1.028
		c0.041,1.079,0.939,0.827,1.467,0.74c2.428-0.401,2.582,0.881,2.492,2.827c-0.251,5.479-0.4,10.966-0.43,16.451
		c-0.014,2.61,0.608,5.138,3.243,6.44C131.149,80.696,133.952,80.464,136.631,78.924z M272.56,56.477
		c-0.165-0.059-0.329-0.118-0.494-0.177c0.05-1.049,0.035-2.106,0.167-3.146c0.148-1.185,0.25-2.159-1.479-1.876
		c-1.246,0.204-2.869-0.764-2.808,1.893c0.188,8.092,0.134,16.192,0.061,24.288c-0.014,1.489,0.292,1.735,1.809,1.859
		c2.277,0.187,2.646-0.517,2.536-2.616c-0.272-5.221-0.446-10.465,0.061-15.682c0.439-4.521,4.148-7.657,8.061-6.075
		c0.455,0.184,1.119,0.363,1.178-0.297c0.113-1.277,0.646-2.764-0.085-3.81c-0.771-1.1-2.134-0.353-3.19-0.007
		c-1.1,0.36-2.042,1.058-2.798,1.934C274.535,53.97,273.562,55.236,272.56,56.477z"/>
	<path fill-rule="evenodd" clip-rule="evenodd" fill="#1F5491" d="M92.877,45.411c-3.197-0.002-6.394,0.041-9.589-0.015
		c-3.014-0.052-3.619-0.686-3.636-3.642c-0.021-3.524-0.13-7.055,0.042-10.57c0.101-2.045-0.818-2.211-2.469-2.212
		c-1.598-0.001-2.364,0.266-2.293,2.12c0.139,3.601,0.089,7.212,0.009,10.816c-0.062,2.792-0.758,3.444-3.581,3.491
		c-3.277,0.055-6.561,0.118-9.833-0.025c-1.875-0.082-2.161,0.744-2.116,2.329c0.042,1.456,0.042,2.518,2.029,2.431
		c3.272-0.142,6.555-0.061,9.833-0.03c2.894,0.027,3.622,0.712,3.679,3.654c0.069,3.605,0.119,7.215-0.018,10.816
		c-0.072,1.901,0.823,2.128,2.363,2.115c1.497-0.012,2.471-0.122,2.392-2.079c-0.147-3.682-0.066-7.375-0.033-11.063
		c0.024-2.646,0.754-3.421,3.342-3.438c5.819-0.039,11.639-0.063,17.457,0.002c5.099,0.058,7.309,3.554,4.929,8.111
		c-1.851,3.544-4.206,6.822-6.269,10.26c-3.833,6.385-7.679,12.787-9.185,20.213c-0.519,2.555-0.757,5.184-0.911,7.791
		c-0.172,2.911,1.312,4.978,3.833,6.336c2.359,1.27,4.936,1.68,7.56,1.938c2.594,0.255,1.042,2.241,1.278,3.407
		c0.227,1.128-0.226,2.049-1.784,1.856c-2.856-0.354-5.692-0.776-8.347-1.935c-5.826-2.543-8.313-7.588-7.825-13.878
		c0.726-9.356,4.355-17.557,9.044-25.426c2.264-3.799,4.63-7.536,7.012-11.263c0.958-1.5,0.864-2.108-1.114-2.063
		c-3.932,0.089-7.869,0.091-11.8-0.005c-1.627-0.04-2.131,0.501-2.085,2.116c0.106,3.685,0.004,7.376,0.042,11.063
		c0.023,2.24-0.926,3.323-3.25,3.257c-2.866-0.082-5.736,0.005-8.605-0.028c-2.453-0.028-3.394-0.936-3.43-3.425
		c-0.054-3.688-0.081-7.378,0.016-11.063c0.041-1.528-0.458-1.972-1.962-1.923c-3.275,0.108-6.557,0.087-9.833,0.016
		c-2.829-0.062-3.599-0.914-3.612-3.723c-0.012-2.623-0.01-5.246,0-7.868c0.011-3.018,0.861-3.88,3.958-3.917
		c2.95-0.035,5.908-0.131,8.849,0.036c1.982,0.112,2.744-0.371,2.621-2.51c-0.191-3.349-0.077-6.718-0.042-10.078
		c0.03-2.882,0.952-3.78,3.844-3.805c2.622-0.023,5.245-0.029,7.868,0c2.966,0.033,3.546,0.632,3.564,3.677
		c0.021,3.524,0.073,7.05-0.026,10.572c-0.043,1.545,0.341,2.14,2.014,2.141c4.911,0.004,9.827-0.259,14.736,0.151
		c1.353,0.113,2.025-0.542,2.099-2.021c0.311-6.218-1.399-11.832-5.031-16.826C91.902,12.073,82.801,6.686,71.392,7.584
		c-16.511,1.3-28.251,9.613-33.98,26.592c-1.463,4.337-1.07,8.567-0.353,12.819c0.733,4.337-0.441,7.892-3.41,10.987
		c-0.397,0.414-0.787,0.834-1.16,1.27c-0.905,1.056-2.387,2.038-2.555,3.206c-0.241,1.673,1.981,1.409,2.992,2.212
		c1.609,1.277,2.052,2.936,1.793,4.792c-0.217,1.556-0.542,3.003,0.705,4.337c0.48,0.513,0.7,1.305,0.301,2.07
		c-0.366,0.701-0.407,1.351,0.09,2.061c1.082,1.548,0.726,3.01-0.211,4.552c-2.43,3.999-0.939,6.642,3.748,6.793
		c3.48,0.111,6.833-0.666,10.187-1.456c1.273-0.301,2.562-0.653,3.856-0.721c3.174-0.167,5.498,1.746,5.711,4.815
		c0.826,11.833-4.906,18.709-16.999,19.076c-0.975,0.03-2.54,0.299-2.109-1.419c0.356-1.419-0.875-3.842,2.22-3.921
		c8.086-0.205,11.202-3.43,11.572-11.389c0.095-2.042-0.672-1.953-2.114-1.57c-3.644,0.969-7.319,1.795-11.117,1.846
		c-1.641,0.021-3.263-0.065-4.87-0.5c-5.035-1.362-7.912-6.104-6.146-11.009c1.026-2.853-0.316-5.216-0.788-7.69
		c-0.298-1.562-0.9-2.899,0.007-4.356c0.942-1.514,0.359-2.26-1.1-3.02c-4.534-2.362-5.075-5.01-1.971-9.015
		c0.802-1.034,1.585-2.139,2.588-2.951c3.665-2.972,4.198-6.752,3.17-11.044c-1.042-4.354-0.378-8.541,1.03-12.746
		C38.026,15.649,49.414,5.933,66.48,2.61c20.977-4.085,42.648,13.312,42.478,34.182c-0.002,0.328,0.008,0.656-0.009,0.983
		c-0.305,6.053-1.868,7.564-7.958,7.633C98.287,45.438,95.582,45.413,92.877,45.411z"/>
	<path fill-rule="evenodd" clip-rule="evenodd" fill="#265894" d="M351.104,74.883c-1.847,2.367-3.901,4.313-6.932,5.033
		c-6.525,1.551-11.994-2.401-12.117-9.105c-0.11-6.056-0.025-12.116,0.058-18.173c0.038-2.728,2.168-0.947,3.277-1.315
		c1.441-0.479,1.231,0.617,1.201,1.569c-0.178,5.72-0.728,11.44-0.28,17.166c0.384,4.919,2.826,7.441,7.039,7.464
		c4.451,0.025,7.493-2.906,7.866-7.703c0.432-5.557,0.438-11.134,0.136-16.688c-0.169-3.105,1.923-1.52,3.078-1.818
		c1.723-0.446,1.549,0.678,1.471,1.843c-0.548,8.097-0.255,16.205-0.252,24.309c0,0.773,0.685,2.219-1.214,1.766
		c-1.142-0.272-3.193,0.976-2.855-1.783C351.671,76.699,351.89,75.826,351.104,74.883z"/>
	<path fill-rule="evenodd" clip-rule="evenodd" fill="#265894" d="M309.137,74.159c0.49,1.891-0.323,2.774-1.566,3.497
		c-5.542,3.223-11.167,3.665-16.653,0.086c-5.367-3.502-6.644-8.785-5.835-14.832c0.33-2.47,0.976-4.814,2.316-6.917
		c2.877-4.511,7.263-5.976,12.284-5.552c4.91,0.415,8.741,2.65,10.352,7.669c1.771,5.522,1.195,6.34-4.382,6.34
		c-4.585,0-9.171,0.081-13.751-0.041c-1.803-0.048-2.261,0.621-2.146,2.271c0.308,4.406,1.637,8.262,5.884,10.32
		c4.188,2.03,8.128,1.026,11.803-1.502C307.969,75.136,308.449,74.706,309.137,74.159z M298.054,62.722
		c2.12,0,4.24,0.017,6.359-0.011c0.613-0.008,1.304,0.13,1.603-0.734c1.26-3.64-2.539-9.488-6.406-9.822
		c-5.003-0.433-9.601,4.131-9.494,9.312c0.026,1.267,0.74,1.249,1.578,1.253C293.813,62.729,295.934,62.724,298.054,62.722z"/>
	<path fill-rule="evenodd" clip-rule="evenodd" fill="#265894" d="M163.851,74.258c0.33,1.761-0.318,2.66-1.59,3.434
		c-6.765,4.108-15.3,2.949-19.742-2.755c-4.356-5.595-3.678-16.14,1.358-21.124c3.542-3.504,9.904-4.496,14.909-2.322
		c4.35,1.89,6.653,5.873,6.595,11.078c-0.017,1.503-0.459,1.939-1.965,1.916c-5.562-0.088-11.127,0.029-16.689-0.073
		c-1.725-0.032-2.25,0.483-2.193,2.202c0.146,4.379,1.508,8.081,5.56,10.224c4.021,2.127,7.919,1.366,11.607-1.01
		C162.375,75.394,163,74.883,163.851,74.258z M152.735,62.723c2.13,0,4.261,0.021,6.39-0.013c0.682-0.012,1.462,0.181,1.729-0.885
		c1.089-4.337-2.972-9.655-7.439-9.677c-4.499-0.022-9.036,5.024-8.661,9.568c0.097,1.169,0.912,0.981,1.591,0.993
		C148.475,62.746,150.605,62.724,152.735,62.723z"/>
	<path fill-rule="evenodd" clip-rule="evenodd" fill="#265894" d="M203.385,74.645c0.645,1.55,0.02,2.268-1,2.887
		c-5.227,3.172-10.616,3.749-16.047,0.708c-5.212-2.918-7.065-7.684-6.789-13.454c0.102-2.143,0.487-4.221,1.212-6.242
		c3.361-9.368,14.736-9.896,20.254-5.679c3.372,2.576,4.31,6.182,4.232,10.237c-0.03,1.579-1.009,1.351-1.976,1.351
		c-5.487-0.003-10.977,0.094-16.461-0.051c-2.021-0.054-2.521,0.632-2.408,2.509c0.251,4.173,1.574,7.741,5.408,9.849
		c3.901,2.146,7.743,1.505,11.431-0.694C201.932,75.653,202.582,75.179,203.385,74.645z M192.536,62.721
		c2.209,0,4.42,0.016,6.63-0.01c0.62-0.008,1.281,0.082,1.548-0.81c1.171-3.909-2.77-9.565-6.835-9.752
		c-4.48-0.207-7.636,2.638-8.914,7.772c-0.519,2.083-0.272,3.081,2.172,2.838C188.92,62.583,190.735,62.726,192.536,62.721z"/>
	<path fill-rule="evenodd" clip-rule="evenodd" fill="#265894" d="M241.405,56.435c-0.593-2.084,0.09-3.129,1.61-3.949
		c3.361-1.812,6.83-2.678,10.618-1.714c3.938,1.002,6.496,4.082,6.521,8.167c0.032,4.992-0.121,9.985-0.162,14.979
		c-0.019,2.287,0.303,4.38,3.867,4.2c-3.992,1.79-5.634,1.529-7.6-1.211c-1.041-1.45-1.529-0.179-2.063,0.262
		c-3.087,2.551-6.472,3.794-10.455,2.56c-3.003-0.931-4.951-3.271-5.166-6.189c-0.239-3.236,0.947-5.741,3.869-7.336
		c1.534-0.839,3.198-1.238,4.891-1.557c1.286-0.242,2.587-0.412,3.87-0.667c4.448-0.884,5.006-1.49,4.68-4.993
		c-0.357-3.845-2.69-6.199-6.175-6.356C246.391,52.48,243.691,53.687,241.405,56.435z M255.941,69.447
		c0-1.229,0.022-2.458-0.01-3.686c-0.015-0.539,0.041-1.387-0.809-1.171c-3.068,0.778-6.354,0.801-9.155,2.523
		c-2.839,1.746-3.777,5.22-2.235,8.139c1.339,2.532,4.521,3.578,7.482,2.341C254.82,76.087,256.699,73.523,255.941,69.447z"/>
	<path fill-rule="evenodd" clip-rule="evenodd" fill="#265894" d="M375.698,55.86c-1.494-2.501-3.296-3.996-6.104-3.71
		c-2.379,0.242-4.005,1.504-4.555,3.799c-0.536,2.235-0.011,4.229,2.133,5.527c1.71,1.035,3.642,1.449,5.516,2.023
		c3.222,0.987,5.986,2.478,6.305,6.301c0.316,3.798-1.408,6.657-4.537,8.635c-4.018,2.541-8.242,2.112-12.486,0.576
		c-0.858-0.312-1.091-0.798-0.703-1.688c0.353-0.812,0.517-1.705,0.824-2.769c1.139,0.988,2.07,1.987,3.177,2.723
		c3.771,2.508,8.572,1.125,9.732-2.739c0.695-2.313,0.096-4.187-1.963-5.531c-1.527-0.998-3.274-1.453-4.984-1.975
		c-5.706-1.742-7.896-4.767-6.824-9.514c1.092-4.833,5.585-7.809,10.778-7.129c0.404,0.053,0.802,0.164,1.203,0.245
		C377.404,51.479,377.404,51.479,375.698,55.86z"/>
	<path fill-rule="evenodd" clip-rule="evenodd" fill="#265894" d="M174.729,56.834c-0.002,6.869-0.046,13.738,0.035,20.605
		c0.017,1.369,0.026,2.244-1.702,1.802c-0.46-0.117-1.007-0.123-1.462,0.006c-1.729,0.489-1.588-0.491-1.558-1.699
		c0.155-6.05,0.314-12.101,0.307-18.151c-0.01-7.686-0.122-15.374-0.325-23.057c-0.042-1.559,0.323-2.207,1.827-1.806
		c1.085,0.29,3.025-1.242,2.942,1.698C174.6,43.095,174.731,49.966,174.729,56.834z"/>
	<path fill-rule="evenodd" clip-rule="evenodd" fill="#265894" d="M233.855,74.102c0.357,1.821-0.197,2.712-1.386,3.471
		c-5.749,3.669-13.273,3.425-18.102-0.668c-4.693-3.978-6.237-12.23-3.428-18.327c2.616-5.679,9.1-9.048,15.687-8.116
		c1.373,0.194,2.76,0.406,4.087,0.792c3.682,1.07,3.728,1.237,2.056,4.949c-2.3-2.327-4.74-4.225-8.263-4.083
		c-3.991,0.161-6.966,1.861-8.535,5.507c-2.06,4.784-2.14,9.751-0.273,14.607c1.792,4.664,6.885,6.85,12.033,5.422
		C229.968,77.033,231.934,75.901,233.855,74.102z"/>
	<path fill-rule="evenodd" clip-rule="evenodd" fill="#265894" d="M136.631,78.924c-2.679,1.54-5.482,1.772-8.282,0.387
		c-2.635-1.303-3.257-3.83-3.243-6.44c0.029-5.484,0.178-10.972,0.43-16.451c0.09-1.946-0.064-3.229-2.492-2.827
		c-0.528,0.087-1.426,0.339-1.467-0.74c-0.044-1.133,0.817-1.132,1.53-1.028c2.075,0.304,2.604-0.646,2.248-2.503
		c-0.106-0.555-0.015-1.145-0.038-1.717c-0.095-2.302,1.495-4.013,3.806-4.206c1.013-0.085,0.799,0.577,0.788,1.086
		c-0.04,1.801,0.014,3.62-0.232,5.396c-0.227,1.645,0.435,2.027,1.871,1.935c1.061-0.068,2.129,0.008,3.193-0.017
		c0.667-0.016,1.099,0.151,1.144,0.918c0.048,0.828-0.425,0.954-1.079,0.906c-0.082-0.006-0.165-0.01-0.246,0.001
		c-1.648,0.24-3.894-0.861-4.816,0.609c-0.793,1.263-0.323,3.335-0.363,5.05c-0.086,3.682-0.325,7.372-0.168,11.044
		C129.522,77.613,129.733,77.741,136.631,78.924z"/>
	<path fill-rule="evenodd" clip-rule="evenodd" fill="#265894" d="M272.56,56.477c1.002-1.24,1.976-2.506,3.018-3.713
		c0.756-0.875,1.698-1.574,2.798-1.934c1.057-0.346,2.42-1.093,3.19,0.007c0.731,1.046,0.198,2.533,0.085,3.81
		c-0.059,0.66-0.723,0.481-1.178,0.297c-3.912-1.582-7.621,1.554-8.061,6.075c-0.507,5.217-0.333,10.461-0.061,15.682
		c0.11,2.1-0.259,2.803-2.536,2.616c-1.517-0.124-1.822-0.37-1.809-1.859c0.073-8.096,0.128-16.195-0.061-24.288
		c-0.062-2.657,1.562-1.688,2.808-1.893c1.729-0.283,1.627,0.691,1.479,1.876c-0.132,1.039-0.117,2.096-0.167,3.146
		C272.23,56.358,272.395,56.417,272.56,56.477z"/>
	<path display="none" fill-rule="evenodd" clip-rule="evenodd" fill="#FDFEFF" d="M298.054,62.723
		c-2.12,0.001-4.24,0.007-6.36-0.003c-0.838-0.004-1.552,0.014-1.578-1.253c-0.106-5.181,4.491-9.745,9.494-9.312
		c3.867,0.334,7.666,6.182,6.406,9.822c-0.299,0.864-0.989,0.727-1.603,0.734C302.294,62.738,300.174,62.722,298.054,62.723z"/>
	<path display="none" fill-rule="evenodd" clip-rule="evenodd" fill="#FDFEFF" d="M152.735,62.723
		c-2.13,0.001-4.26,0.023-6.39-0.013c-0.68-0.012-1.495,0.176-1.591-0.993c-0.375-4.544,4.163-9.59,8.661-9.568
		c4.468,0.022,8.529,5.339,7.439,9.677c-0.268,1.065-1.047,0.873-1.729,0.885C156.996,62.744,154.865,62.723,152.735,62.723z"/>
	<path display="none" fill-rule="evenodd" clip-rule="evenodd" fill="#FDFEFF" d="M192.536,62.724
		c-1.801,0.002-3.616-0.141-5.399,0.036c-2.445,0.243-2.691-0.755-2.172-2.838c1.278-5.134,4.434-7.979,8.914-7.772
		c4.065,0.187,8.006,5.843,6.835,9.752c-0.267,0.892-0.928,0.802-1.548,0.81C196.956,62.736,194.746,62.721,192.536,62.724z"/>
	<path fill-rule="evenodd" clip-rule="evenodd" fill="#FDFEFF" d="M255.941,69.447c0.758,4.076-1.121,6.64-4.727,8.146
		c-2.961,1.237-6.144,0.191-7.482-2.341c-1.542-2.919-0.604-6.393,2.235-8.139c2.801-1.723,6.087-1.745,9.155-2.523
		c0.85-0.216,0.794,0.632,0.809,1.171C255.964,66.989,255.941,68.219,255.941,69.447z"/>
</g>
</svg>
